<mxfile host="app.diagrams.net" modified="2023-08-01T11:43:10.123Z" agent="Mozilla/5.0 (Windows NT 10.0; Win64; x64) AppleWebKit/537.36 (KHTML, like Gecko) Chrome/115.0.0.0 Safari/537.36" etag="UMCmbp7o1qp1m8heh08O" version="21.6.6" type="device">
  <diagram name="Page-1" id="mY3Zyk1iaAb5K2WxIMUM">
    <mxGraphModel dx="733" dy="392" grid="1" gridSize="10" guides="1" tooltips="1" connect="1" arrows="1" fold="1" page="1" pageScale="1" pageWidth="850" pageHeight="1100" math="0" shadow="0">
      <root>
        <mxCell id="0" />
        <mxCell id="1" parent="0" />
      </root>
    </mxGraphModel>
  </diagram>
</mxfile>
